<svg
                    width="29"
                    height="24"
                    viewBox="0 0 29 24"
                    fill="none"
                    stroke="currentColor"
                    xmlns="http://www.w3.org/2000/svg"
                  >
                    <path
                      d="M5.77265 7.79742L5.15746 6.67657C4.50941 7.0324 3.87595 7.43154 3.2742 7.86306L4.0196 8.90184C4.57968 8.50019 5.16935 8.12851 5.77265 7.79742Z"
                      strokeWidth="1"
                    />
                    <path
                      d="M9.60972 6.25656L9.2796 5.02126C8.56533 5.21217 7.85493 5.44891 7.1683 5.7247L7.64477 6.91119C8.28422 6.65434 8.94504 6.43423 9.60972 6.25656Z"
                      strokeWidth="1"
                    />
                    <path
                      d="M22.2851 6.35178C21.6245 6.02166 20.9359 5.72808 20.2372 5.47897L19.808 6.68334C20.4581 6.91496 21.099 7.18814 21.7136 7.49544L22.2851 6.35178Z"
                      strokeWidth="1"
                    />
                    <path
                      d="M27.5948 10.3551L26.6534 11.2196C27.1196 11.7272 27.5595 12.2685 27.9611 12.8274L29 12.082C28.5687 11.4811 28.0961 10.8999 27.5948 10.3551Z"
                      strokeWidth="1"
                    />
                    <path
                      d="M23.5074 8.53295C24.0808 8.91334 24.6378 9.33335 25.1618 9.78082L25.992 8.80845C25.4288 8.32734 24.8305 7.87601 24.2135 7.4673L23.5074 8.53295Z"
                      strokeWidth="1"
                    />
                    <path
                      d="M0 10.8693L0.971887 11.7C1.41936 11.1764 1.90375 10.6748 2.41106 10.2092L1.54657 9.26753C1.00127 9.76759 0.48111 10.3067 0 10.8693Z"
                      strokeWidth="1"
                    />
                    <path
                      d="M10.2743 6.84487L10.9166 6.84526L11.6958 5.6637L14.2004 5.6812L13.0798 9.54429C13.0798 9.657 13.1714 9.74883 13.2841 9.74883H14.3146L16.467 5.75698L18.4425 5.82262C19.0049 5.82262 19.4599 5.39197 19.4599 4.86069C19.4603 4.32989 19.0045 3.89924 18.443 3.89924L16.4528 3.96575L14.3148 0.000193412L13.2838 0C13.1711 0.000193333 13.0795 0.0920267 13.0795 0.20474L14.1924 4.04096L11.682 4.06271L10.9161 2.90396L10.2738 2.90416C10.1884 2.90416 10.1194 2.97298 10.1194 3.05824V6.69117C10.1198 6.77604 10.1891 6.84535 10.2743 6.84487Z"
                      strokeWidth="1"
                    />
                    <path
                      d="M16.56 11.7193C15.7231 11.5286 14.868 11.4318 14.017 11.4318C8.66541 11.4318 4.09597 15.0816 2.90523 20.3071C2.677 21.3087 2.58817 22.3197 2.62848 23.3194H3.90805V23.3191C3.86697 22.415 3.94469 21.4995 4.15117 20.593C4.56964 20.7014 6.44043 21.2206 6.38098 21.8225C6.33091 22.3273 6.16851 22.9023 6.30365 23.319H7.47969C7.64122 23.2013 7.79695 23.1453 7.9493 23.3056C7.95336 23.31 7.95868 23.3145 7.96293 23.319H17.2498C15.064 21.9267 14.7547 19.467 14.7547 19.467C14.6005 19.3999 15.0417 17.6528 14.3545 17.4429C13.6663 17.2332 13.2324 17.4013 12.2577 16.9664C11.2818 16.5315 11.6472 15.9238 11.8075 14.4735C11.8759 13.8546 12.0334 13.3007 12.2341 12.8654C12.8139 12.7633 13.4094 12.71 14.0168 12.71C14.7719 12.71 15.5323 12.7959 16.2762 12.9653C18.9144 13.5662 21.1606 15.1587 22.6011 17.4487C23.6869 19.1756 24.2159 21.143 24.1534 23.1374C24.0699 23.1981 23.9802 23.2586 23.8864 23.3194H25.4241C25.5255 21.0242 24.9323 18.7544 23.6832 16.7682C22.0614 14.1889 19.5315 12.396 16.56 11.7193Z"
                      strokeWidth="1"
                    />
                  </svg>